# xmcd
# 
# Track frame offsets:
#     150
#     18302
#     33957
#     48055
#     62981
#     79164
#     93163
#     105621
#     120737
#     135674
#     148824
#     163679
# 
# Disc length: 2483
# 
# Revision: 3
# Processed by: cddbd v1.5.2PL0 Copyright (c) Steve Scherf et al.
# Submitted via: fre:ac v1.1beta1
# 
DISCID=9a09b10c
DTITLE=Shawn Mendes - Illuminate
DYEAR=2016
DGENRE=Blues/Pop/Rock
TTITLE0=Ruin
TTITLE1=Mercy
TTITLE2=Treat You Better
TTITLE3=Three Empty Words
TTITLE4=Don't Be a Fool
TTITLE5=Like This
TTITLE6=No Promises
TTITLE7=Lights On
TTITLE8=Honest
TTITLE9=Patience
TTITLE10=Bad Reputation
TTITLE11=Understand
EXTD=
EXTT0=
EXTT1=
EXTT2=
EXTT3=
EXTT4=
EXTT5=
EXTT6=
EXTT7=
EXTT8=
EXTT9=
EXTT10=
EXTT11=
PLAYORDER=
